<svg viewBox="0 0 100 100" xmlns="http://www.w3.org/2000/svg">
  <defs>
    <linearGradient id="fav-ring-top" x1="0%" y1="0%" x2="100%" y2="0%">
      <stop offset="0%" stop-color="#29ABE2"/>
      <stop offset="100%" stop-color="#8DC63F"/>
    </linearGradient>
    <linearGradient id="fav-ring-bottom" x1="0%" y1="0%" x2="100%" y2="0%">
      <stop offset="0%" stop-color="#662D91"/>
      <stop offset="100%" stop-color="#F7941D"/>
    </linearGradient>
    <linearGradient id="fav-pulse" x1="0%" y1="0%" x2="100%" y2="0%">
      <stop offset="0%" stop-color="#662D91"/>
      <stop offset="50%" stop-color="#8DC63F"/>
      <stop offset="100%" stop-color="#F7941D"/>
    </linearGradient>
  </defs>

  <!-- Outer ring top arc: cyan → green -->
  <path d="M 8 50 A 42 42 0 0 1 92 50" fill="none" stroke="url(#fav-ring-top)" stroke-width="5.5" stroke-linecap="round"/>

  <!-- Outer ring bottom arc: purple → orange -->
  <path d="M 8 50 A 42 42 0 0 0 92 50" fill="none" stroke="url(#fav-ring-bottom)" stroke-width="5.5" stroke-linecap="round"/>

  <!-- Art Palette (upper left) -->
  <g transform="translate(25, 28) rotate(-12)">
    <ellipse rx="11.5" ry="9" fill="#662D91"/>
    <circle cx="3" cy="5.5" r="3" fill="white"/>
    <circle cx="-5.5" cy="-1.5" r="2.2" fill="#F7941D"/>
    <circle cx="-0.5" cy="-6.5" r="2.2" fill="#29ABE2"/>
    <circle cx="6" cy="-3" r="2.2" fill="#8DC63F"/>
  </g>

  <!-- Music Notes (upper right) -->
  <g fill="#8DC63F">
    <ellipse cx="65" cy="31" rx="3.8" ry="3" transform="rotate(-10, 65, 31)"/>
    <rect x="68.5" y="18" width="2.5" height="14" rx="1.25"/>
    <ellipse cx="74" cy="34.5" rx="3.8" ry="3" transform="rotate(-10, 74, 34.5)"/>
    <rect x="77.5" y="21.5" width="2.5" height="14" rx="1.25"/>
    <rect x="68.5" y="18" width="11.5" height="3.5" rx="1.75"/>
  </g>

  <!-- EKG Heartbeat Line (center) -->
  <path d="M 14 50 L 27 50 L 32 36 L 38 62 L 43 41 L 47 50 L 62 50" fill="none" stroke="url(#fav-pulse)" stroke-width="3" stroke-linecap="round" stroke-linejoin="round"/>

  <!-- Comedy / Theater Mask (lower left) -->
  <g transform="translate(27, 70)">
    <circle r="10.5" fill="#29ABE2"/>
    <ellipse cx="-3.5" cy="-2.5" rx="2" ry="2.8" fill="white"/>
    <ellipse cx="3.5" cy="-2.5" rx="2" ry="2.8" fill="white"/>
    <path d="M -5.5 3.5 Q 0 9 5.5 3.5" fill="none" stroke="white" stroke-width="2" stroke-linecap="round"/>
  </g>

  <!-- Dancing Figure (lower right) -->
  <g stroke="#F7941D" stroke-width="2.8" stroke-linecap="round" fill="none">
    <circle cx="73" cy="59" r="4.5" fill="#F7941D" stroke="none"/>
    <line x1="73" y1="63.5" x2="73" y2="75"/>
    <line x1="73" y1="67" x2="64" y2="61"/>
    <line x1="73" y1="67" x2="82" y2="63"/>
    <line x1="73" y1="75" x2="66" y2="84"/>
    <line x1="73" y1="75" x2="81" y2="82"/>
  </g>
</svg>
